<svg viewBox="0 0 700 440" xmlns="http://www.w3.org/2000/svg" font-family="system-ui, sans-serif">
  <style>.t{fill:#2c2c2a}.ts{fill:#5f5e5a}.tm{fill:#98968f}.tw{fill:#ffffff}.card{fill:#ffffff;stroke:#dddbd3}</style>
  <rect width="700" height="440" fill="#f4f3ee" rx="12"/>
  <rect x="20" y="20" width="660" height="400" class="card" rx="12"/>

  <text x="40" y="52" font-size="16" font-weight="600" class="t">Company blog</text>
  <rect x="164" y="36" width="102" height="22" rx="11" fill="#e1f5ee"/>
  <circle cx="178" cy="47" r="3" fill="#0f6e56"/>
  <text x="188" y="51" font-size="11" fill="#0f6e56">Site up to date</text>
  <text x="536" y="51" font-size="11" text-anchor="end" class="tm">Checked 2 min ago</text>
  <rect x="552" y="33" width="108" height="30" rx="8" fill="#2c2c2a"/>
  <text x="606" y="52" font-size="12" font-weight="600" text-anchor="middle" class="tw">+ New post</text>
  <line x1="20" y1="74" x2="680" y2="74" stroke="#dddbd3"/>

  <text x="48" y="100" font-size="12" font-weight="600" class="t">All posts</text>
  <text x="106" y="100" font-size="12" class="tm">15</text>
  <rect x="44" y="108" width="78" height="2" fill="#2c2c2a"/>
  <text x="140" y="100" font-size="12" class="ts">Writing</text>
  <text x="186" y="100" font-size="12" class="tm">2</text>
  <text x="212" y="100" font-size="12" class="ts">Ready to publish</text>
  <text x="312" y="100" font-size="12" class="tm">1</text>
  <text x="336" y="100" font-size="12" class="ts">Live on site</text>
  <text x="406" y="100" font-size="12" class="tm">12</text>
  <line x1="20" y1="110" x2="680" y2="110" stroke="#dddbd3"/>

  <text x="44" y="140" font-size="14" font-weight="600" class="t">Why we moved to a static site</text>
  <text x="44" y="158" font-size="11.5" class="tm">Blog · edited 5 minutes ago</text>
  <rect x="586" y="132" width="70" height="22" rx="11" fill="none" stroke="#dddbd3"/>
  <text x="621" y="147" font-size="11" text-anchor="middle" class="ts">Writing</text>
  <line x1="20" y1="172" x2="680" y2="172" stroke="#dddbd3"/>

  <text x="44" y="202" font-size="14" font-weight="600" class="t">Spring release notes</text>
  <text x="44" y="220" font-size="11.5" class="tm">Blog · edited yesterday</text>
  <rect x="540" y="194" width="116" height="22" rx="11" fill="#e6f1fb"/>
  <text x="598" y="209" font-size="11" text-anchor="middle" fill="#185fa5">Ready to publish</text>
  <line x1="20" y1="234" x2="680" y2="234" stroke="#dddbd3"/>

  <text x="44" y="264" font-size="14" font-weight="600" class="t">Meet the team</text>
  <text x="44" y="282" font-size="11.5" class="tm">Pages · published 3 days ago</text>
  <rect x="566" y="256" width="90" height="22" rx="11" fill="#e1f5ee"/>
  <text x="611" y="271" font-size="11" text-anchor="middle" fill="#0f6e56">Live on site</text>
  <line x1="20" y1="296" x2="680" y2="296" stroke="#dddbd3"/>

  <text x="44" y="326" font-size="14" font-weight="600" class="t">How we write docs</text>
  <text x="44" y="344" font-size="11.5" class="tm">Blog · published last week</text>
  <rect x="566" y="318" width="90" height="22" rx="11" fill="#e1f5ee"/>
  <text x="611" y="333" font-size="11" text-anchor="middle" fill="#0f6e56">Live on site</text>

  <line x1="20" y1="376" x2="680" y2="376" stroke="#dddbd3"/>
  <rect x="20" y="376" width="660" height="44" fill="#faf9f6"/>
  <text x="40" y="402" font-size="11.5" class="tm">⚙ Site settings (owners)</text>
  <text x="660" y="402" font-size="11.5" text-anchor="end" fill="#185fa5">Put 1 post live →</text>
</svg>
